# xmcd CD database file
# Copyright (C) 1997 Ti Kan
# 
# Track frame offsets:
#     150
#     16397
#     31640
#     46995
#     59632
#     72852
#     88642
#     104645
#     118172
#     129777
# 
# Disc length: 2028 seconds
# 
# Revision: 1
# Processed by: cddbd v1.4b41PL1 Copyright (c) Steve Scherf et al.
# Submitted via: DiscPlay 4.0.3
# 
DISCID=8207ea0a
DTITLE=Mila Mason - That's Enough of That
DYEAR=1900
DGENRE=
TTITLE0=That's What I Call Love
TTITLE1=Hot To Molly
TTITLE2=Tonight I Know I Will
TTITLE3=That's Enough Of That
TTITLE4=I Don't Need A Man To Live
TTITLE5=heart Without A Past
TTITLE6=That's the Kind Of Love
TTITLE7=troublemaker
TTITLE8=I Do
TTITLE9=Dark Horse
EXTD=
EXTT0=
EXTT1=
EXTT2=
EXTT3=
EXTT4=
EXTT5=
EXTT6=
EXTT7=
EXTT8=
EXTT9=
PLAYORDER=
